<svg width="22" height="21" viewBox="0 0 22 21" fill="none" xmlns="http://www.w3.org/2000/svg">
<path d="M1 5.61548H21" stroke="currentColor" stroke-width="2" stroke-miterlimit="10" stroke-linecap="round" stroke-linejoin="round"/>
<circle cx="4.07685" cy="3.30781" r="0.769231" fill="currentColor"/>
<circle cx="6.38447" cy="3.30781" r="0.769231" fill="currentColor"/>
<circle cx="8.69208" cy="3.30781" r="0.769231" fill="currentColor"/>
<path d="M5.61538 17.9231H1V1H21V17.9231H16.3846" stroke="currentColor" stroke-width="2" stroke-miterlimit="10" stroke-linecap="round" stroke-linejoin="round"/>
<path d="M7.92285 10.2307V13.3076C7.92285 14.9999 9.30747 16.3846 10.9998 16.3846C12.6921 16.3846 14.0767 14.9999 14.0767 13.3076V10.2307H7.92285Z" stroke="currentColor" stroke-width="2" stroke-miterlimit="10" stroke-linecap="round" stroke-linejoin="round"/>
<path d="M7.92263 10.2307H4.8457V11.3846C4.8457 13.3076 6.38416 14.8461 8.30724 14.8461" stroke="currentColor" stroke-width="2" stroke-miterlimit="10" stroke-linecap="round" stroke-linejoin="round"/>
<path d="M14.077 10.2307H17.1539V11.3846C17.1539 13.3076 15.6155 14.8461 13.6924 14.8461" stroke="currentColor" stroke-width="2" stroke-miterlimit="10" stroke-linecap="round" stroke-linejoin="round"/>
<path d="M9.46191 19.4614H12.5388" stroke="currentColor" stroke-width="2" stroke-miterlimit="10" stroke-linecap="round" stroke-linejoin="round"/>
<path d="M11 19.4614V16.3845" stroke="currentColor" stroke-width="2" stroke-miterlimit="10" stroke-linecap="round" stroke-linejoin="round"/>
</svg>
